<?xml version="1.0" encoding="utf-8"?>
<!-- Generator: Adobe Illustrator 25.0.1, SVG Export Plug-In . SVG Version: 6.00 Build 0)  -->
<svg version="1.1" id="Layer_1" xmlns="http://www.w3.org/2000/svg" xmlns:xlink="http://www.w3.org/1999/xlink" x="0px" y="0px"
	 viewBox="0 0 792 612" style="enable-background:new 0 0 792 612;" xml:space="preserve">
<style type="text/css">
	.st0{fill:#FFFFFF;}
	.st1{fill:#4B5EFF;}
</style>
<g>
	<path class="st0" d="M250.92,333.73v-53.08c0-2.07,1.68-3.75,3.75-3.75h9.5c1.15,0,2.24,0.53,2.95,1.43l26.72,34.02v-34.3
		c0-0.64,0.52-1.16,1.16-1.16h12.68c0.64,0,1.16,0.52,1.16,1.16v53.08c0,2.07-1.68,3.75-3.75,3.75h-9.43
		c-1.15,0-2.24-0.53-2.95-1.43l-26.72-34.02v34.3c0,0.64-0.52,1.16-1.16,1.16h-12.76C251.44,334.89,250.92,334.37,250.92,333.73z"/>
	<path class="st1" d="M459.85,275.28c-16.91,0-30.61,13.7-30.61,30.61c0,16.91,13.7,30.61,30.61,30.61
		c16.91,0,30.61-13.7,30.61-30.61C490.46,288.99,476.76,275.28,459.85,275.28z M459.85,321.52c-8.63,0-15.62-7-15.62-15.62
		s7-15.62,15.62-15.62s15.62,7,15.62,15.62S468.48,321.52,459.85,321.52z"/>
	<path class="st1" d="M388.65,277.63l13.71,34.57l13.78-34.57c0.18-0.44,0.6-0.73,1.07-0.73h13.86c0.83,0,1.39,0.84,1.07,1.61
		l-23.09,54.74c-0.42,1-1.4,1.65-2.48,1.65h-8.42c-1.08,0-2.06-0.65-2.48-1.65l-23.01-54.74c-0.32-0.76,0.24-1.6,1.07-1.6h13.86
		C388.05,276.9,388.48,277.19,388.65,277.63z"/>
	<path class="st1" d="M504.87,307.04l-20.07-28.61c-0.45-0.65,0.01-1.54,0.8-1.54h15.6c0.32,0,0.63,0.16,0.81,0.43l10.48,15.41
		l10.4-15.41c0.18-0.27,0.49-0.43,0.81-0.43h15.59c0.79,0,1.26,0.89,0.8,1.54l-20.14,28.61v26.65c0,0.66-0.54,1.2-1.2,1.2h-12.68
		c-0.66,0-1.2-0.54-1.2-1.2V307.04z"/>
	<path class="st0" d="M345.15,275.28c-16.91,0-30.61,13.7-30.61,30.61c0,16.91,13.7,30.61,30.61,30.61
		c16.91,0,30.61-13.7,30.61-30.61C375.76,288.99,362.06,275.28,345.15,275.28z M345.15,321.52c-8.63,0-15.62-7-15.62-15.62
		s7-15.62,15.62-15.62s15.62,7,15.62,15.62S353.78,321.52,345.15,321.52z"/>
</g>
</svg>
