<svg xmlns="http://www.w3.org/2000/svg" width="27" height="18" viewBox="0 0 27 18">
    <g fill="none" fill-rule="evenodd">
        <g fill="#FFF" fill-rule="nonzero">
            <g>
                <g>
                    <g>
                        <g>
                            <path d="M25.831 8.134H3.991L9.2 2.83c.457-.465.457-1.218 0-1.683-.456-.464-1.196-.464-1.652 0L.342 8.483c-.456.464-.456 1.218 0 1.682l7.207 7.337c.228.232.527.348.827.348.299 0 .598-.116.826-.348.456-.465.456-1.218 0-1.682L3.99 10.514h21.841c.646 0 1.169-.533 1.169-1.19 0-.657-.523-1.19-1.169-1.19z" transform="translate(-1081 -2583) translate(265 2269) translate(0 275) translate(795 14) matrix(-1 0 0 1 48 25)"/>
                        </g>
                    </g>
                </g>
            </g>
        </g>
    </g>
</svg>
