<svg xmlns="http://www.w3.org/2000/svg" width="24" height="24" viewBox="0 0 24 24">
    <g fill="none" fill-rule="evenodd">
        <g>
            <g>
                <g>
                    <g>
                        <path d="M0 0H24V24H0z" transform="translate(-654 -518) translate(650 160) translate(0 350) translate(4 8)"/>
                        <path fill="#858EBD" fill-rule="nonzero" d="M14.29 5.71c-.39.39-.39 1.02 0 1.41L18.17 11H3c-.55 0-1 .45-1 1s.45 1 1 1h15.18l-3.88 3.88c-.39.39-.39 1.02 0 1.41.39.39 1.02.39 1.41 0l5.59-5.59c.39-.39.39-1.02 0-1.41l-5.6-5.58c-.38-.39-1.02-.39-1.41 0z" transform="translate(-654 -518) translate(650 160) translate(0 350) translate(4 8) rotate(-180 11.796 12)"/>
                    </g>
                </g>
            </g>
        </g>
    </g>
</svg>
