<svg xmlns="http://www.w3.org/2000/svg" width="40" height="37" viewBox="0 0 40 37">
    <g fill="none" fill-rule="evenodd">
        <g fill="#1421FF" fill-rule="nonzero">
            <g>
                <g>
                    <g>
                        <path d="M34.943 18.701l-4.285-6.63c-.332-.514-.895-.821-1.506-.821H10.246c-.61 0-1.172.306-1.504.818L4.443 18.7c-.439.677-.37 1.572.165 2.175l13.744 15.462c.34.382.828.602 1.34.602.51 0 1-.22 1.34-.602l13.744-15.463c.536-.602.604-1.496.167-2.173zm-6.66-5.91l-3.603 5.584-3.606-5.584h7.21zm-5.017 6.233h-7.15l3.576-5.536 3.574 5.536zM18.31 12.79l-3.596 5.569-3.595-5.569h7.19zm-8.613.635l3.613 5.598H6.07l3.627-5.598zm-3.303 7.14h7.742l4.093 13.314L6.393 20.565zm13.299 12.837l-3.947-12.838h7.893l-3.946 12.838zm1.463.478l4.093-13.316h7.743L21.155 33.881zm4.939-14.857l3.61-5.594 3.614 5.594h-7.224zM2.333 19.024H.77c-.425 0-.769.345-.769.77 0 .426.344.771.77.771h1.563c.425 0 .77-.345.77-.77 0-.426-.345-.771-.77-.771zM38.615 19.024h-1.564c-.424 0-.769.345-.769.77 0 .426.345.771.77.771h1.563c.425 0 .77-.345.77-.77 0-.426-.345-.771-.77-.771zM33.627 5.845c-.3-.301-.788-.301-1.088 0l-2.555 2.56c-.3.301-.3.79 0 1.09.15.151.347.226.544.226.196 0 .393-.075.543-.225l2.556-2.561c.3-.301.3-.789 0-1.09zM9.434 8.392L6.88 5.832c-.3-.302-.787-.302-1.088 0-.3.3-.3.788 0 1.09l2.555 2.56c.15.15.348.225.544.225.197 0 .394-.075.544-.225.3-.301.3-.79 0-1.09zM19.712.061c-.425 0-.77.345-.77.771v5.023c0 .426.345.771.77.771.425 0 .77-.345.77-.77V.831c0-.426-.345-.77-.77-.77zM20.255 7.918c-.143-.143-.341-.226-.543-.226-.203 0-.401.083-.544.226-.143.143-.226.342-.226.545s.083.402.226.545c.143.144.341.226.544.226.202 0 .4-.082.543-.226.144-.143.226-.342.226-.545s-.082-.402-.226-.545z" transform="translate(-752 -1529) translate(0 1408) translate(735 79) translate(17 42)"/>
                    </g>
                </g>
            </g>
        </g>
    </g>
</svg>
