<svg xmlns="http://www.w3.org/2000/svg" width="38" height="38" viewBox="0 0 38 38">
    <g fill="none" fill-rule="evenodd">
        <g fill="#1421FF" fill-rule="nonzero">
            <g>
                <g>
                    <g>
                        <g>
                            <path d="M31.447 20.93h-14.49V6.472c.008-.456-.355-.836-.82-.845h-.008c-4.29-.017-8.402 1.689-11.417 4.729C1.672 13.457 0 17.509 0 21.774c0 8.9 7.245 16.146 16.146 16.146 4.29.017 8.402-1.69 11.434-4.73 3.04-3.098 4.72-7.152 4.72-11.416-.008-.465-.388-.845-.853-.845zm-5.075 11.079c-2.71 2.719-6.392 4.239-10.226 4.23-7.972-.008-14.457-6.494-14.457-14.465 0-3.834 1.511-7.507 4.214-10.226 2.5-2.508 5.835-4.011 9.365-4.206v14.432c0 .464.413.844.878.844h14.431c-.202 3.547-1.68 6.823-4.205 9.39z" transform="translate(-1042 -1528) translate(0 1408) translate(735 79) translate(292) translate(15 41)"/>
                            <path d="M33.246 4.784c0-.009 0-.009-.009-.017-3.099-3.04-7.135-4.72-11.4-4.72-.456 0-.827.37-.827.835v15.319c-.017.456.338.836.794.844h15.318c.464 0 .844-.38.844-.844 0-4.265-1.672-8.327-4.72-11.417zM22.699 1.76c1.562.1 3.107.447 4.56 1.03l-4.56 4.56V1.76zm0 7.98l6.164-6.182c.92.507 1.782 1.115 2.567 1.807l-8.731 8.74V9.741zm1.114 5.615l8.791-8.79c.692.785 1.3 1.638 1.816 2.55l-6.24 6.24h-4.367zm6.756 0l4.627-4.627c.608 1.477.963 3.04 1.056 4.627h-5.683z" transform="translate(-1042 -1528) translate(0 1408) translate(735 79) translate(292) translate(15 41)"/>
                        </g>
                    </g>
                </g>
            </g>
        </g>
    </g>
</svg>
