<svg xmlns="http://www.w3.org/2000/svg" width="26" height="26" viewBox="0 0 26 26">
    <defs>
        <filter id="d6ohk5f7ba">
            <feColorMatrix in="SourceGraphic" values="0 0 0 0 0.078431 0 0 0 0 0.129412 0 0 0 0 1.000000 0 0 0 1.000000 0"/>
        </filter>
    </defs>
    <g fill="none" fill-rule="evenodd">
        <g>
            <g>
                <g fill="#000" fill-rule="nonzero" filter="url(#d6ohk5f7ba)" transform="translate(-150 -856) translate(0 768) translate(150 88)">
                    <path d="M21.85 3.749C19.434 1.331 16.22 0 12.8 0 9.38 0 6.167 1.331 3.749 3.749S0 9.381 0 12.8c0 3.419 1.331 6.633 3.749 9.05C6.167 24.27 9.381 25.6 12.8 25.6c3.419 0 6.633-1.331 9.05-3.75 2.419-2.417 3.75-5.631 3.75-9.05 0-3.419-1.331-6.633-3.75-9.051zM12.8 24.1c-6.23 0-11.3-5.07-11.3-11.3S6.57 1.5 12.8 1.5s11.3 5.07 11.3 11.3-5.07 11.3-11.3 11.3z"/>
                    <path d="M18.915 8.693c-.293-.293-.767-.293-1.06 0l-6.623 6.623-3.487-3.486c-.293-.293-.767-.293-1.06 0-.293.292-.293.767 0 1.06l4.016 4.017c.147.146.339.22.53.22.193 0 .385-.074.531-.22l7.153-7.153c.293-.293.293-.768 0-1.061z"/>
                </g>
            </g>
        </g>
    </g>
</svg>
