<svg xmlns="http://www.w3.org/2000/svg" width="24" height="24" viewBox="0 0 24 24">
    <defs>
        <filter id="gqmp3oyqia">
            <feColorMatrix in="SourceGraphic" values="0 0 0 0 0.703715 0 0 0 0 0.751941 0 0 0 0 0.907439 0 0 0 1.000000 0"/>
        </filter>
    </defs>
    <g fill="none" fill-rule="evenodd">
        <g>
            <g>
                <g filter="url(#gqmp3oyqia)" transform="translate(-32 -462) translate(0 68) translate(16 384)">
                    <g>
                        <path d="M0 0H24V24H0z" transform="translate(16 10)"/>
                        <path fill="#858EBD" d="M9 14c2.67 0 8 1.34 8 4v1c0 .55-.45 1-1 1H2c-.55 0-1-.45-1-1v-1c0-2.66 5.33-4 8-4zm10.25-7c.276 0 .5.224.5.5l.06.42c.054.376.491.557.795.33l.34-.255c.195-.195.511-.195.707 0l.353.353c.195.196.195.512 0 .707l-.254.34c-.228.304-.047.741.329.795l.42.06c.276 0 .5.224.5.5v.5c0 .276-.224.5-.5.5l-.42.06c-.376.054-.557.491-.33.795l.255.34c.195.195.195.511 0 .707l-.353.353c-.196.195-.512.195-.707 0l-.34-.254c-.304-.228-.741-.047-.795.329l-.06.42c0 .276-.224.5-.5.5h-.5c-.276 0-.5-.224-.5-.5l-.06-.42c-.054-.376-.491-.557-.795-.33l-.34.255c-.195.195-.511.195-.707 0l-.353-.353c-.195-.196-.195-.512 0-.707l.254-.34c.228-.304.047-.741-.329-.795l-.42-.06c-.276 0-.5-.224-.5-.5v-.5c0-.276.224-.5.5-.5l.42-.06c.376-.054.557-.491.33-.795l-.255-.34c-.195-.195-.195-.511 0-.707l.353-.353c.196-.195.512-.195.707 0l.34.254c.304.228.741.047.795-.329l.06-.42c0-.276.224-.5.5-.5zM9 4c2.21 0 4 1.79 4 4s-1.79 4-4 4-4-1.79-4-4 1.79-4 4-4zm10 6c-.552 0-1 .448-1 1s.448 1 1 1 1-.448 1-1-.448-1-1-1z" transform="translate(16 10)"/>
                    </g>
                </g>
            </g>
        </g>
    </g>
</svg>
