<svg xmlns="http://www.w3.org/2000/svg" width="24" height="24" viewBox="0 0 24 24">
    <defs>
        <filter id="32edjs0jea">
            <feColorMatrix in="SourceGraphic" values="0 0 0 0 0.703715 0 0 0 0 0.751941 0 0 0 0 0.907439 0 0 0 1.000000 0"/>
        </filter>
    </defs>
    <g fill="none" fill-rule="evenodd">
        <g>
            <g>
                <g>
                    <g filter="url(#32edjs0jea)" transform="translate(-322 -464) translate(282 156) translate(24 292) translate(8 8)">
                        <g>
                            <path d="M0 0L24 0 24 24 0 24z" transform="translate(8 8)"/>
                            <path fill="#858EBD" d="M19.701 18.647c.229-.324.676-.397.994-.165.32.233.392.684.163 1.008-.662.932-2.258 1.51-4.168 1.51-1.908 0-3.506-.578-4.167-1.51-.23-.324-.158-.775.162-1.008.319-.232.766-.159.994.165.313.441 1.476.91 3.011.91 1.537 0 2.698-.469 3.011-.91zm-9.388 0c.228-.324.675-.397.993-.165.32.233.393.684.163 1.008-.662.932-2.259 1.51-4.168 1.51-1.909 0-3.505-.578-4.167-1.51-.23-.324-.157-.775.162-1.008.319-.232.766-.159.994.165.313.441 1.475.91 3.01.91 1.537 0 2.7-.469 3.013-.91zm9.388-2.634c.229-.323.676-.398.994-.165.32.233.392.684.163 1.007-.662.932-2.258 1.51-4.168 1.51-1.908 0-3.506-.578-4.167-1.51-.23-.323-.158-.774.162-1.007.319-.233.766-.158.994.165.313.441 1.476.91 3.011.91 1.537 0 2.698-.469 3.011-.91zm-9.388 0c.228-.323.675-.398.993-.165.32.233.393.684.163 1.007-.662.932-2.259 1.51-4.168 1.51-1.909 0-3.505-.578-4.167-1.51-.23-.323-.157-.774.162-1.007.319-.233.766-.158.994.165.313.441 1.475.91 3.01.91 1.537 0 2.7-.469 3.013-.91zm9.388-2.634c.23-.324.673-.399.994-.165.319.233.392.683.163 1.007-.662.932-2.258 1.512-4.168 1.512-1.91 0-3.506-.58-4.168-1.512-.229-.324-.156-.774.163-1.007.32-.234.765-.159.994.165.313.441 1.475.91 3.011.91 1.537 0 2.698-.469 3.011-.91zm-9.388 0c.228-.324.673-.399.993-.165.319.233.392.683.163 1.007-.661.932-2.258 1.512-4.168 1.512-1.91 0-3.506-.58-4.167-1.512-.23-.324-.156-.774.162-1.007.321-.234.765-.159.994.165.313.441 1.474.91 3.01.91 1.538 0 2.7-.469 3.013-.91zm9.388-2.634c.23-.324.673-.4.994-.166.319.233.392.683.163 1.007-.662.933-2.258 1.512-4.168 1.512-1.91 0-3.506-.579-4.168-1.512-.229-.324-.156-.774.163-1.007.32-.233.765-.158.994.166.313.44 1.475.91 3.011.91 1.537 0 2.698-.47 3.011-.91zm-12.4-2.477c2.14 0 4.3.715 4.3 2.312 0 1.596-2.16 2.31-4.3 2.31C5.16 12.89 3 12.176 3 10.58c0-1.597 2.16-2.312 4.3-2.312zm12.4-.158c.23-.324.673-.398.994-.165.319.233.392.683.163 1.007-.662.933-2.258 1.512-4.168 1.512-1.91 0-3.506-.58-4.168-1.512-.229-.324-.156-.774.163-1.007.32-.233.765-.159.994.165.313.441 1.475.91 3.011.91 1.537 0 2.698-.469 3.011-.91zM16.7 3c2.14 0 4.3.715 4.3 2.311s-2.16 2.31-4.3 2.31c-2.141 0-4.3-.714-4.3-2.31S14.558 3 16.7 3z" transform="translate(8 8)"/>
                        </g>
                    </g>
                </g>
            </g>
        </g>
    </g>
</svg>
