<svg xmlns="http://www.w3.org/2000/svg" width="24" height="24" viewBox="0 0 24 24">
    <defs>
        <filter id="9d94l0owka">
            <feColorMatrix in="SourceGraphic" values="0 0 0 0 0.703715 0 0 0 0 0.751941 0 0 0 0 0.907439 0 0 0 1.000000 0"/>
        </filter>
    </defs>
    <g fill="none" fill-rule="evenodd">
        <g>
            <g>
                <g filter="url(#9d94l0owka)" transform="translate(-32 -190) translate(0 68) translate(16 112)">
                    <g>
                        <path d="M0 0L24 0 24 24 0 24z" transform="translate(16 10)"/>
                        <path fill="#858EBD" d="M6.4 9.2h.2c.77 0 1.4.63 1.4 1.4v7c0 .77-.63 1.4-1.4 1.4h-.2c-.77 0-1.4-.63-1.4-1.4v-7c0-.77.63-1.4 1.4-1.4zM12 5c.77 0 1.4.63 1.4 1.4v11.2c0 .77-.63 1.4-1.4 1.4-.77 0-1.4-.63-1.4-1.4V6.4c0-.77.63-1.4 1.4-1.4zm5.6 8c.77 0 1.4.63 1.4 1.4v3.2c0 .77-.63 1.4-1.4 1.4-.77 0-1.4-.63-1.4-1.4v-3.2c0-.77.63-1.4 1.4-1.4z" transform="translate(16 10)"/>
                    </g>
                </g>
            </g>
        </g>
    </g>
</svg>
