<svg xmlns="http://www.w3.org/2000/svg" width="24" height="24" viewBox="0 0 24 24">
    <defs>
        <filter id="lfxces1wja">
            <feColorMatrix in="SourceGraphic" values="0 0 0 0 0.703715 0 0 0 0 0.751941 0 0 0 0 0.907439 0 0 0 1.000000 0"/>
        </filter>
    </defs>
    <g fill="none" fill-rule="evenodd">
        <g>
            <g>
                <g>
                    <g filter="url(#lfxces1wja)" transform="translate(-322 -592) translate(282 156) translate(24 420) translate(8 8)">
                        <g>
                            <path d="M0 0L24 0 24 24 0 24z" transform="translate(8 8)"/>
                            <path fill="#858EBD" d="M14 2c1.11 0 2 .89 2 2v2h4c1.11 0 2 .89 2 2v11c0 1.11-.89 2-2 2H4c-1.11 0-2-.89-2-2l.01-11c0-1.11.88-2 1.99-2h4V4c0-1.11.89-2 2-2zm-2 6.5c-.416 0-.753.375-.753.831v.375c-.966.232-1.747.931-1.747 2.007 0 1.28.955 1.918 2.348 2.293 1.253.332 1.5.819 1.5 1.338 0 .381-.247.993-1.348.993-.82 0-1.247-.325-1.41-.793-.079-.219-.247-.375-.455-.375H10c-.337 0-.579.381-.45.725.281.769.944 1.225 1.692 1.4v.375c0 .456.337.831.747.831.415 0 .753-.375.753-.831v-.363c.977-.206 1.747-.831 1.758-1.975 0-1.575-1.213-2.118-2.348-2.444-1.135-.325-1.5-.668-1.5-1.193 0-.6.505-1.025 1.348-1.025.708 0 1.062.306 1.191.781.056.225.225.388.433.388h.146c.331 0 .567-.363.455-.707-.214-.662-.703-1.2-1.478-1.412V9.33c0-.456-.337-.831-.747-.831zM14 4h-4v2h4V4z" transform="translate(8 8)"/>
                        </g>
                    </g>
                </g>
            </g>
        </g>
    </g>
</svg>
