<svg xmlns="http://www.w3.org/2000/svg" width="24" height="24" viewBox="0 0 24 24">
    <defs>
        <filter id="jlkb2gi4ja">
            <feColorMatrix in="SourceGraphic" values="0 0 0 0 0.703715 0 0 0 0 0.751941 0 0 0 0 0.907439 0 0 0 1.000000 0"/>
        </filter>
    </defs>
    <g fill="none" fill-rule="evenodd">
        <g>
            <g>
                <g filter="url(#jlkb2gi4ja)" transform="translate(-32 -510) translate(0 68) translate(16 432)">
                    <g>
                        <path d="M0 0L24 0 24 24 0 24z" transform="translate(16 10)"/>
                        <path fill="#858EBD" d="M11.438 3c-.622 0-1.126.504-1.126 1.125l-.135.945c-.12.847-1.104 1.254-1.788.741l-.764-.573c-.44-.44-1.152-.44-1.591 0l-.796.796c-.44.44-.44 1.151 0 1.59l.573.765c.513.684.106 1.668-.74 1.788l-.946.136c-.621 0-1.125.503-1.125 1.124v1.126c0 .62.504 1.124 1.125 1.124l.945.136c.847.12 1.254 1.104.741 1.788l-.573.764c-.44.44-.44 1.152 0 1.591l.796.796c.44.44 1.151.44 1.59 0l.765-.573c.684-.513 1.668-.106 1.788.74l.136.946c0 .621.503 1.125 1.124 1.125h1.126c.62 0 1.124-.504 1.124-1.125l.136-.945c.12-.847 1.104-1.254 1.788-.741l.764.573c.44.44 1.152.44 1.591 0l.796-.796c.439-.44.439-1.151 0-1.59l-.573-.765c-.513-.684-.106-1.668.74-1.788l.946-.136c.621 0 1.125-.503 1.125-1.124v-1.126c0-.62-.504-1.124-1.125-1.124l-.945-.136c-.847-.12-1.254-1.104-.741-1.788l.573-.764c.439-.44.439-1.152 0-1.591l-.796-.796c-.44-.44-1.151-.44-1.59 0l-.765.573c-.684.513-1.668.106-1.788-.74l-.136-.946c0-.621-.503-1.125-1.124-1.125h-1.126zM12 14.25c1.243 0 2.25-1.007 2.25-2.25S13.243 9.75 12 9.75 9.75 10.757 9.75 12s1.007 2.25 2.25 2.25z" transform="translate(16 10)"/>
                    </g>
                </g>
            </g>
        </g>
    </g>
</svg>
