<svg xmlns="http://www.w3.org/2000/svg" width="21" height="29" viewBox="0 0 21 29">
    <g fill="none" fill-rule="evenodd">
        <g fill="#8C97AC" fill-rule="nonzero">
            <g>
                <g>
                    <path d="M9.713 5.906c0 .435.352.788.787.788.435 0 .787-.353.787-.788H9.713zM2.625 28.35h15.75v-1.575H2.625v1.575zm17.85-2.1v-21H18.9v21h1.575zm-19.95-21v21H2.1v-21H.525zm17.85-2.1H10.5v1.575h7.875V3.15zm-7.875 0H2.625v1.575H10.5V3.15zm.787.788V0H9.713v3.938h1.575zm-1.575 0v1.968h1.575V3.938H9.713zM20.476 5.25c0-1.16-.94-2.1-2.1-2.1v1.575c.29 0 .525.235.525.525h1.575zm-2.1 23.1c1.16 0 2.1-.94 2.1-2.1H18.9c0 .29-.235.525-.525.525v1.575zm-15.75-1.575c-.29 0-.525-.235-.525-.525H.525c0 1.16.94 2.1 2.1 2.1v-1.575zM2.1 5.25c0-.29.235-.525.525-.525V3.15c-1.16 0-2.1.94-2.1 2.1H2.1zM12.63 13.386c0 1.152-.946 2.1-2.13 2.1v1.574c2.038 0 3.704-1.637 3.704-3.674H12.63zm-2.13 2.1c-1.184 0-2.13-.948-2.13-2.1H6.797c0 2.037 1.666 3.674 3.704 3.674v-1.575zm-2.13-2.1c0-1.151.946-2.098 2.13-2.098V9.713c-2.038 0-3.704 1.637-3.704 3.673H8.37zm2.13-2.098c1.184 0 2.13.947 2.13 2.098h1.574c0-2.036-1.666-3.673-3.704-3.673v1.575zM6.004 23.194c.61-2.04 2.411-3.48 4.496-3.48V18.14c-2.842 0-5.213 1.958-6.004 4.603l1.508.452zm4.496-3.48c2.085 0 3.885 1.44 4.496 3.48l1.508-.452c-.791-2.645-3.162-4.603-6.004-4.603v1.575z" transform="translate(-211 -719) translate(172 681) translate(39 38)"/>
                </g>
            </g>
        </g>
    </g>
</svg>
